<svg width="204" height="84" fill="none" xmlns="http://www.w3.org/2000/svg"><path fill="#1F242E" d="M2 2h200v48H2z"/><path fill-rule="evenodd" clip-rule="evenodd" d="M43 24.104a4.084 4.084 0 001.75-3.354v-.875a.875.875 0 00-.875-.875h-.292a4.083 4.083 0 00-4.083 4.083v6.414a1.167 1.167 0 01-2.333 0v-2.334a1.167 1.167 0 00-2.334 0v2.334a1.168 1.168 0 01-2.333 0v-4.664a1.167 1.167 0 00-2.333 0V29.5a3.5 3.5 0 003.5 3.5c.897 0 1.713-.341 2.333-.897.62.556 1.436.897 2.333.897a3.5 3.5 0 003.5-3.5v-3.208A2.64 2.64 0 0143 24.104z" fill="#fff"/><circle cx="36" cy="26" r="13.5" stroke="#fff"/><path d="M81.148 16.392L78.028 25h-2.4l-1.936-5.344-2 5.344h-2.4l-3.104-8.608h2.352l2.032 5.824 2.112-5.824h2.112l2.048 5.824 2.096-5.824h2.208zm5.022 8.736c-.907 0-1.723-.187-2.448-.56a4.292 4.292 0 01-1.68-1.584c-.406-.672-.608-1.435-.608-2.288 0-.853.203-1.616.608-2.288a4.18 4.18 0 011.68-1.568c.725-.384 1.541-.576 2.448-.576.906 0 1.717.192 2.432.576a4.18 4.18 0 011.68 1.568c.405.672.608 1.435.608 2.288 0 .853-.203 1.616-.608 2.288a4.293 4.293 0 01-1.68 1.584c-.715.373-1.526.56-2.432.56zm0-2.048c.64 0 1.162-.213 1.568-.64.416-.437.624-1.019.624-1.744 0-.725-.208-1.301-.624-1.728-.406-.437-.928-.656-1.568-.656s-1.168.219-1.584.656c-.416.427-.624 1.003-.624 1.728 0 .725.208 1.307.624 1.744.416.427.944.64 1.584.64zm8.772-5.552c.299-.416.699-.73 1.2-.944.512-.213 1.099-.32 1.76-.32v2.304a9.038 9.038 0 00-.56-.032c-.714 0-1.274.203-1.68.608-.405.395-.608.992-.608 1.792V25h-2.496v-8.608h2.384v1.136zm8.14 4.096l-1.2 1.184V25h-2.496V13.128h2.496v6.72l3.648-3.456h2.976l-3.584 3.648 3.904 4.96h-3.024l-2.72-3.376zm9.482 3.504a8.602 8.602 0 01-2.096-.256c-.683-.181-1.227-.405-1.632-.672l.832-1.792c.384.245.848.448 1.392.608a6 6 0 001.6.224c1.056 0 1.584-.261 1.584-.784 0-.245-.144-.421-.432-.528-.288-.107-.731-.197-1.328-.272a12.79 12.79 0 01-1.744-.368 2.758 2.758 0 01-1.2-.736c-.331-.352-.496-.853-.496-1.504 0-.544.154-1.024.464-1.44.32-.427.778-.757 1.376-.992.608-.235 1.322-.352 2.144-.352.608 0 1.21.07 1.808.208.608.128 1.109.31 1.504.544l-.832 1.776a4.968 4.968 0 00-2.48-.64c-.534 0-.934.075-1.2.224-.267.15-.4.341-.4.576 0 .267.144.453.432.56.288.107.746.208 1.376.304.704.117 1.28.245 1.728.384.448.128.837.368 1.168.72.33.352.496.843.496 1.472 0 .533-.16 1.008-.48 1.424-.32.416-.79.741-1.408.976-.608.224-1.334.336-2.176.336zm14.036-4.4c0 .032-.016.256-.048.672h-6.512c.117.533.394.955.832 1.264.437.31.981.464 1.632.464.448 0 .842-.064 1.184-.192.352-.139.677-.352.976-.64l1.328 1.44c-.811.928-1.995 1.392-3.552 1.392-.971 0-1.83-.187-2.576-.56-.747-.384-1.323-.912-1.728-1.584-.406-.672-.608-1.435-.608-2.288 0-.843.197-1.6.592-2.272a4.193 4.193 0 011.648-1.584c.704-.384 1.488-.576 2.352-.576.842 0 1.605.181 2.288.544a3.909 3.909 0 011.6 1.568c.394.672.592 1.456.592 2.352zm-4.464-2.576c-.566 0-1.04.16-1.424.48-.384.32-.619.757-.704 1.312h4.24c-.086-.544-.32-.976-.704-1.296-.384-.33-.854-.496-1.408-.496zm10.285 6.976c-.917 0-1.744-.187-2.48-.56a4.383 4.383 0 01-1.712-1.584c-.405-.672-.608-1.435-.608-2.288 0-.853.203-1.616.608-2.288a4.268 4.268 0 011.712-1.568c.736-.384 1.563-.576 2.48-.576.907 0 1.696.192 2.368.576a3.316 3.316 0 011.488 1.616l-1.936 1.04c-.448-.79-1.093-1.184-1.936-1.184-.65 0-1.189.213-1.616.64-.426.427-.64 1.008-.64 1.744s.214 1.317.64 1.744c.427.427.966.64 1.616.64.854 0 1.499-.395 1.936-1.184l1.936 1.056c-.309.683-.805 1.216-1.488 1.6-.672.384-1.461.576-2.368.576zm10.971-.544a2.68 2.68 0 01-.912.416 4.747 4.747 0 01-1.12.128c-1.024 0-1.819-.261-2.384-.784-.555-.523-.832-1.29-.832-2.304v-3.536h-1.328v-1.92h1.328v-2.096h2.496v2.096h2.144v1.92h-2.144v3.504c0 .363.09.645.271.848.193.192.459.288.801.288.394 0 .73-.107 1.008-.32l.672 1.76zm1.401-8.192h2.496V25h-2.496v-8.608zm1.248-1.2c-.459 0-.832-.133-1.12-.4a1.297 1.297 0 01-.432-.992c0-.395.144-.725.432-.992.288-.267.661-.4 1.12-.4.458 0 .832.128 1.12.384.288.256.432.576.432.96 0 .416-.144.763-.432 1.04-.288.267-.662.4-1.12.4zm7.66 9.936c-.907 0-1.723-.187-2.448-.56a4.288 4.288 0 01-1.68-1.584c-.405-.672-.608-1.435-.608-2.288 0-.853.203-1.616.608-2.288a4.175 4.175 0 011.68-1.568c.725-.384 1.541-.576 2.448-.576s1.717.192 2.432.576a4.175 4.175 0 011.68 1.568c.405.672.608 1.435.608 2.288 0 .853-.203 1.616-.608 2.288a4.288 4.288 0 01-1.68 1.584c-.715.373-1.525.56-2.432.56zm0-2.048c.64 0 1.163-.213 1.568-.64.416-.437.624-1.019.624-1.744 0-.725-.208-1.301-.624-1.728-.405-.437-.928-.656-1.568-.656s-1.168.219-1.584.656c-.416.427-.624 1.003-.624 1.728 0 .725.208 1.307.624 1.744.416.427.944.64 1.584.64zm11.621-6.816c1.066 0 1.925.32 2.576.96.661.64.992 1.59.992 2.848V25h-2.496v-4.544c0-.683-.15-1.19-.448-1.52-.299-.341-.731-.512-1.296-.512-.63 0-1.131.197-1.504.592-.374.384-.56.96-.56 1.728V25h-2.496v-8.608h2.384V17.4a3.22 3.22 0 011.232-.832 4.189 4.189 0 011.616-.304zM69.624 35.205c.304 0 .572-.04.803-.121.234-.08.43-.193.588-.336.161-.146.282-.32.363-.522a1.79 1.79 0 00.121-.666c0-.502-.156-.894-.467-1.177-.308-.282-.778-.423-1.408-.423h-1.265v3.245h1.265zm0-4.086c.498 0 .93.058 1.298.175.37.114.676.277.918.49.242.213.422.47.54.77.12.3.18.636.18 1.006 0 .367-.064.703-.192 1.007a2.152 2.152 0 01-.566.786c-.246.22-.552.393-.919.517a3.983 3.983 0 01-1.26.182H68.36V39h-1.062v-7.881h2.327zm8.797 4.955l-1.237-3.206a6.43 6.43 0 01-.231-.738 5.987 5.987 0 01-.237.743l-1.237 3.201h2.942zM80.643 39h-.825a.355.355 0 01-.23-.072.44.44 0 01-.133-.181l-.737-1.903h-3.536l-.737 1.903a.386.386 0 01-.127.176.351.351 0 01-.23.077h-.826l3.152-7.881h1.078L80.643 39zm4.1-4.065c.309 0 .58-.036.815-.11.238-.077.436-.183.593-.319.162-.139.283-.304.364-.495.08-.19.12-.401.12-.632 0-.47-.154-.823-.462-1.061-.308-.239-.77-.358-1.386-.358h-1.166v2.975h1.123zM88.385 39h-.947c-.194 0-.337-.075-.428-.225l-2.047-2.816a.568.568 0 00-.203-.188c-.07-.04-.18-.06-.33-.06h-.809V39H82.56v-7.881h2.227c.5 0 .93.05 1.293.154.363.099.662.243.897.434.238.19.414.422.527.693.114.268.171.568.171.902 0 .279-.044.539-.132.781-.088.242-.216.46-.385.654a2.256 2.256 0 01-.61.49c-.239.136-.51.238-.814.308.135.077.253.189.352.336L88.385 39zm7.023-6.985h-2.552V39h-1.061v-6.985h-2.558v-.896h6.171v.896zm8.435-.896V39h-.533a.478.478 0 01-.215-.044.548.548 0 01-.165-.149l-4.56-5.94a6.813 6.813 0 01.023.518V39h-.935v-7.881h.55a.57.57 0 01.209.038.25.25 0 01.077.055.65.65 0 01.082.088l4.56 5.934-.022-.275a5.948 5.948 0 01-.006-.258v-5.582h.935zm7.757 7.012l-.005.869h-4.857v-7.881h4.857v.869h-3.79v2.617h3.069v.837h-3.069v2.689h3.795zm4.55-3.196c.308 0 .58-.036.814-.11.239-.077.437-.183.594-.319a1.32 1.32 0 00.363-.495c.081-.19.121-.401.121-.632 0-.47-.154-.823-.462-1.061-.308-.239-.77-.358-1.386-.358h-1.166v2.975h1.122zM119.791 39h-.946c-.194 0-.337-.075-.429-.225l-2.046-2.816a.568.568 0 00-.203-.188c-.07-.04-.18-.06-.33-.06h-.809V39h-1.061v-7.881h2.227c.499 0 .93.05 1.293.154a2.4 2.4 0 01.896.434c.239.19.415.422.528.693.114.268.171.568.171.902 0 .279-.044.539-.132.781-.088.242-.217.46-.385.654a2.26 2.26 0 01-.611.49 2.968 2.968 0 01-.814.308c.136.077.253.189.352.336L119.791 39zm5.984-6.65a.425.425 0 01-.11.127.236.236 0 01-.138.039c-.062 0-.135-.032-.22-.094a3.176 3.176 0 00-.319-.203 2.309 2.309 0 00-.456-.21 1.943 1.943 0 00-.644-.093 1.86 1.86 0 00-.632.099 1.35 1.35 0 00-.457.258 1.09 1.09 0 00-.275.391 1.217 1.217 0 00-.093.478c0 .22.053.404.159.55.11.144.253.266.429.369.18.103.382.193.605.27.228.073.459.15.693.23.239.081.47.173.693.276.228.098.429.225.605.379.18.154.323.343.429.566.11.224.165.5.165.826 0 .344-.058.669-.176.973a2.21 2.21 0 01-.517.786c-.223.224-.5.4-.83.529a3.039 3.039 0 01-1.117.192c-.513 0-.979-.092-1.397-.275a3.31 3.31 0 01-1.072-.754l.308-.505a.382.382 0 01.104-.1.254.254 0 01.143-.044c.048 0 .101.02.16.061.062.037.132.084.209.143.077.059.165.123.264.193s.211.133.335.192c.129.059.273.108.435.148.161.037.343.056.544.056.253 0 .479-.035.677-.105.198-.07.365-.167.5-.291a1.28 1.28 0 00.319-.457c.074-.176.11-.372.11-.589 0-.238-.055-.432-.165-.583a1.297 1.297 0 00-.423-.384 2.869 2.869 0 00-.605-.259 97.06 97.06 0 00-.693-.22 7.836 7.836 0 01-.693-.264 2.228 2.228 0 01-.605-.385 1.809 1.809 0 01-.429-.588c-.107-.239-.16-.532-.16-.88 0-.28.053-.549.16-.809.11-.26.267-.491.473-.693.209-.202.464-.363.764-.484a2.816 2.816 0 011.045-.181c.44 0 .84.07 1.199.209.363.139.682.34.957.605l-.258.505z" fill="#fff"/><path fill="#131720" d="M2 50h200v32H2z"/><path d="M22.248 71h-1.89V60.878h1.89V71zm12.48-10.122V71h-.967a.91.91 0 01-.378-.07.935.935 0 01-.287-.252l-5.285-6.748c.028.308.042.593.042.854V71h-1.659V60.878h.987c.08 0 .147.005.203.014.06.005.112.019.154.042a.4.4 0 01.133.091c.042.037.089.089.14.154l5.306 6.776a17.949 17.949 0 01-.035-.483 7.49 7.49 0 01-.014-.441v-6.153h1.66zm11.003 1.547H42.68V71h-1.883v-8.575h-3.052v-1.547h7.987v1.547zm4.895-.049v2.807h3.542v1.449h-3.542v2.863h4.494V71h-6.384V60.878h6.384v1.498h-4.494zm15.968 3.549v4.095a5.418 5.418 0 01-1.645.833c-.579.173-1.2.259-1.862.259-.826 0-1.575-.128-2.247-.385a5.069 5.069 0 01-1.715-1.071 4.716 4.716 0 01-1.092-1.638 5.494 5.494 0 01-.385-2.079c0-.76.124-1.458.37-2.093a4.746 4.746 0 011.05-1.638 4.739 4.739 0 011.66-1.064c.649-.252 1.377-.378 2.184-.378.41 0 .793.033 1.148.098.36.065.69.156.994.273.308.112.588.25.84.413.252.163.483.343.693.539l-.54.854a.529.529 0 01-.328.252c-.135.028-.282-.007-.441-.105l-.462-.266a2.936 2.936 0 00-.518-.231 4.089 4.089 0 00-.637-.161 4.629 4.629 0 00-.812-.063c-.5 0-.952.084-1.358.252a2.873 2.873 0 00-1.03.721 3.25 3.25 0 00-.657 1.127 4.417 4.417 0 00-.231 1.47c0 .579.082 1.097.245 1.554.168.453.401.838.7 1.155.303.313.667.553 1.092.721.425.163.898.245 1.42.245.374 0 .708-.04 1.002-.119.294-.08.58-.187.86-.322v-1.834H63.62a.404.404 0 01-.287-.098.356.356 0 01-.098-.252v-1.064h3.36zm6.553-.231c.355 0 .663-.044.924-.133.266-.089.483-.21.651-.364.173-.159.301-.345.385-.56.084-.215.126-.45.126-.707 0-.513-.17-.908-.51-1.183-.337-.275-.853-.413-1.548-.413h-1.204v3.36h1.176zM77.991 71h-1.7c-.323 0-.556-.126-.7-.378l-2.129-3.241a.735.735 0 00-.266-.259c-.093-.051-.233-.077-.42-.077h-.805V71h-1.883V60.878h3.087c.686 0 1.274.072 1.764.217.495.14.898.338 1.211.595.317.257.55.565.7.924.15.355.224.747.224 1.176 0 .34-.051.663-.154.966a2.692 2.692 0 01-.434.826c-.187.247-.42.464-.7.651-.275.187-.59.334-.945.441.121.07.233.154.336.252.103.093.196.205.28.336L77.991 71zm8.121-3.822l-1.232-3.367a7.336 7.336 0 01-.189-.532 19.12 19.12 0 01-.196-.665c-.06.238-.124.462-.189.672a8.573 8.573 0 01-.189.539l-1.225 3.353h3.22zM89.437 71h-1.456a.634.634 0 01-.399-.119.79.79 0 01-.23-.308l-.757-2.065h-4.193l-.756 2.065a.671.671 0 01-.217.294.605.605 0 01-.399.133h-1.47l3.983-10.122h1.918L89.437 71zm8.814-8.575h-3.053V71h-1.882v-8.575h-3.053v-1.547h7.987v1.547zm12.315 3.514c0 .742-.123 1.43-.371 2.065a4.793 4.793 0 01-1.036 1.638 4.764 4.764 0 01-1.617 1.085c-.63.257-1.33.385-2.1.385-.765 0-1.463-.128-2.093-.385a4.843 4.843 0 01-1.624-1.085 4.902 4.902 0 01-1.043-1.638 5.645 5.645 0 01-.371-2.065c0-.742.124-1.428.371-2.058a4.886 4.886 0 011.043-1.645 4.759 4.759 0 011.624-1.078c.63-.261 1.328-.392 2.093-.392.514 0 .997.06 1.449.182a4.93 4.93 0 011.246.504c.378.215.717.478 1.015.791.304.308.56.653.77 1.036.21.383.369.798.476 1.246.112.448.168.92.168 1.414zm-1.925 0c0-.555-.074-1.052-.224-1.491a3.184 3.184 0 00-.637-1.127 2.715 2.715 0 00-1.008-.707 3.43 3.43 0 00-1.33-.245c-.494 0-.94.082-1.337.245a2.799 2.799 0 00-1.008.707 3.215 3.215 0 00-.637 1.127 4.623 4.623 0 00-.224 1.491c0 .555.075 1.055.224 1.498.15.439.362.812.637 1.12.28.303.616.537 1.008.7.397.163.843.245 1.337.245a3.43 3.43 0 001.33-.245 2.754 2.754 0 001.008-.7 3.19 3.19 0 00.637-1.12 4.66 4.66 0 00.224-1.498zm8.318-.245c.355 0 .663-.044.924-.133.266-.089.483-.21.651-.364.173-.159.301-.345.385-.56.084-.215.126-.45.126-.707 0-.513-.17-.908-.511-1.183-.336-.275-.852-.413-1.547-.413h-1.204v3.36h1.176zM121.803 71h-1.701c-.322 0-.555-.126-.7-.378l-2.128-3.241a.733.733 0 00-.266-.259c-.093-.051-.233-.077-.42-.077h-.805V71H113.9V60.878h3.087c.686 0 1.274.072 1.764.217.495.14.898.338 1.211.595.317.257.551.565.7.924.149.355.224.747.224 1.176 0 .34-.051.663-.154.966a2.698 2.698 0 01-.434.826c-.187.247-.42.464-.7.651-.275.187-.59.334-.945.441.121.07.233.154.336.252.103.093.196.205.28.336L121.803 71z" fill="url(#paint0_radial_120_1253)"/><path d="M138.379 62.719a.66.66 0 01-.182.217.394.394 0 01-.231.063.637.637 0 01-.322-.105 6.063 6.063 0 00-.406-.245 3.122 3.122 0 00-.56-.238 2.237 2.237 0 00-.749-.112c-.261 0-.49.033-.686.098a1.43 1.43 0 00-.497.259 1.07 1.07 0 00-.294.406 1.301 1.301 0 00-.098.511.91.91 0 00.196.595c.136.159.313.294.532.406.22.112.469.212.749.301s.567.184.861.287c.294.098.581.215.861.35.28.13.53.299.749.504.22.2.395.448.525.742.136.294.203.651.203 1.071 0 .457-.079.887-.238 1.288a2.933 2.933 0 01-.686 1.043 3.257 3.257 0 01-1.099.7c-.434.168-.931.252-1.491.252-.322 0-.639-.033-.952-.098a4.94 4.94 0 01-.903-.266 4.907 4.907 0 01-.805-.42 3.895 3.895 0 01-.672-.546l.553-.903a.563.563 0 01.182-.161.442.442 0 01.238-.07c.117 0 .243.049.378.147.136.093.297.198.483.315.187.117.404.224.651.322.252.093.553.14.903.14.537 0 .952-.126 1.246-.378.294-.257.441-.623.441-1.099 0-.266-.067-.483-.203-.651a1.524 1.524 0 00-.525-.42 3.784 3.784 0 00-.749-.294 27.83 27.83 0 01-.854-.259 7.376 7.376 0 01-.854-.336 2.778 2.778 0 01-.749-.511 2.39 2.39 0 01-.532-.784c-.13-.317-.196-.707-.196-1.169 0-.369.073-.728.217-1.078.15-.35.364-.66.644-.931a3.15 3.15 0 011.036-.651c.411-.163.882-.245 1.414-.245.598 0 1.148.093 1.652.28.504.187.934.448 1.288.784l-.469.889zM143.963 71h-1.89V60.878h1.89V71zm9.595-1.554V71h-5.929V60.878h1.883v8.568h4.046zm10.214-8.568L159.684 71h-1.701l-4.088-10.122h1.512c.164 0 .297.04.399.119.103.08.18.182.231.308l2.387 6.174c.08.2.154.422.224.665.075.238.145.488.21.749.056-.261.117-.511.182-.749a6.42 6.42 0 01.217-.665l2.373-6.174a.68.68 0 01.217-.294.635.635 0 01.406-.133h1.519zm4.338 1.498v2.807h3.542v1.449h-3.542v2.863h4.494V71h-6.384V60.878h6.384v1.498h-4.494zm10.622 3.318c.355 0 .663-.044.924-.133.266-.089.483-.21.651-.364.173-.159.301-.345.385-.56.084-.215.126-.45.126-.707 0-.513-.17-.908-.511-1.183-.336-.275-.852-.413-1.547-.413h-1.204v3.36h1.176zM183.576 71h-1.701c-.322 0-.555-.126-.7-.378l-2.128-3.241a.733.733 0 00-.266-.259c-.093-.051-.233-.077-.42-.077h-.805V71h-1.883V60.878h3.087c.686 0 1.274.072 1.764.217.495.14.898.338 1.211.595.317.257.551.565.7.924.149.355.224.747.224 1.176 0 .34-.051.663-.154.966a2.698 2.698 0 01-.434.826c-.187.247-.42.464-.7.651-.275.187-.59.334-.945.441.121.07.233.154.336.252.103.093.196.205.28.336L183.576 71z" fill="url(#paint1_linear_120_1253)"/><path d="M138.379 62.719l.087.05.002-.003-.089-.047zm-.182.217l.057.082h.001l-.058-.082zm-.553-.042l-.055.083.004.003.051-.086zm-.406-.245l.049-.087-.049.087zm-.56-.238l-.033.094.002.001.031-.095zm-1.435-.014l.03.096.002-.001-.032-.095zm-.497.259l-.063-.077-.002.001.065.076zm-.294.406l.092.04.001-.002-.093-.038zm.098 1.106l-.077.064h.001l.076-.064zm.532.406l-.045.09.045-.09zm1.61.588l-.033.094h.002l.031-.094zm.861.35l-.043.09h.001l.042-.09zm.749.504l-.068.073h.001l.067-.073zm.525.742l-.091.04v.002l.091-.042zm-.035 2.359l-.093-.037.093.037zm-.686 1.043l.07.071-.07-.071zm-1.099.7l.036.093h.001l-.037-.093zm-2.443.154l.021-.098h-.002l-.019.098zm-.903-.266l-.038.093h.001l.037-.093zm-.805-.42l-.054.084.054-.084zm-.672-.546l-.085-.052-.041.066.055.056.071-.07zm.553-.903l-.081-.058-.004.006.085.052zm.182-.161l.049.087.004-.002-.053-.085zm.616.077l-.058.081.002.001.056-.082zm.483.315l.053-.085-.053.085zm.651.322l-.037.093h.003l.034-.093zm2.149-.238l.065.076h.001l-.066-.076zm.238-1.75l-.079.061.001.002.078-.063zm-.525-.42l-.047.088.002.001.045-.089zm-.749-.294l-.027.096.027-.096zm-.854-.259l-.03.095.03-.095zm-.854-.336l-.042.09.042-.09zm-.749-.511l-.069.072.069-.072zm-.532-.784l-.092.038.001.002.091-.04zm.021-2.247l-.092-.04v.002l.092.038zm.644-.931l-.069-.072.069.072zm4.102-.616l-.034.094.034-.094zm1.288.784l.089.047.035-.067-.055-.053-.069.073zm-.556.84a.562.562 0 01-.153.185l.116.162a.76.76 0 00.211-.248l-.174-.1zm-.152.184a.296.296 0 01-.174.045v.2a.494.494 0 00.288-.08l-.114-.165zm-.174.045a.538.538 0 01-.27-.09l-.103.17a.73.73 0 00.373.12v-.2zm-.266-.088a6.374 6.374 0 00-.413-.25l-.097.175c.157.088.29.168.399.241l.111-.166zm-.413-.25a3.226 3.226 0 00-.578-.245l-.062.19c.21.069.391.145.543.23l.097-.174zm-.575-.244a2.34 2.34 0 00-.783-.118v.2c.281 0 .519.036.716.106l.067-.188zm-.783-.118a2.28 2.28 0 00-.717.103l.063.19c.183-.061.401-.093.654-.093v-.2zm-.715.102a1.528 1.528 0 00-.531.278l.127.154c.124-.102.277-.183.463-.24l-.059-.192zm-.533.28a1.16 1.16 0 00-.321.443l.185.076a.962.962 0 01.266-.368l-.13-.152zm-.321.442a1.399 1.399 0 00-.106.55h.2c0-.175.031-.332.09-.472l-.184-.078zm-.106.55c0 .257.071.48.219.659l.154-.128a.809.809 0 01-.173-.531h-.2zm.22.66c.145.17.334.313.563.43l.091-.178a1.615 1.615 0 01-.502-.382l-.152.13zm.563.43a5 5 0 00.764.307l.06-.19a4.796 4.796 0 01-.733-.295l-.091.178zm.764.307c.279.089.565.184.858.286l.066-.188a30.88 30.88 0 00-.864-.288l-.06.19zm.86.287c.29.096.573.212.849.345l.087-.18a7.355 7.355 0 00-.873-.355l-.063.19zm.85.346c.271.126.512.288.723.486l.137-.146a2.971 2.971 0 00-.775-.522l-.085.182zm.724.487c.208.19.375.426.501.709l.183-.082a2.311 2.311 0 00-.549-.775l-.135.148zm.501.71c.128.277.194.62.194 1.029h.2c0-.43-.069-.802-.212-1.113l-.182.084zm.194 1.029c0 .446-.077.862-.231 1.251l.186.074c.164-.414.245-.856.245-1.325h-.2zm-.231 1.252c-.149.383-.37.719-.663 1.008l.14.142c.314-.308.55-.668.71-1.078l-.187-.072zm-.663 1.008c-.288.283-.643.51-1.066.678l.074.186a3.36 3.36 0 001.132-.722l-.14-.142zm-1.065.678c-.42.163-.905.245-1.455.245v.2c.57 0 1.08-.086 1.527-.259l-.072-.186zm-1.455.245a4.54 4.54 0 01-.931-.096l-.041.196c.319.067.643.1.972.1v-.2zm-.933-.096a4.804 4.804 0 01-.884-.26l-.075.185c.295.119.602.21.921.271l.038-.196zm-.884-.26a4.747 4.747 0 01-.788-.412l-.109.168c.257.167.531.31.821.428l.076-.184zm-.788-.412a3.753 3.753 0 01-.655-.532l-.143.14c.201.206.431.393.689.56l.109-.168zm-.641-.41l.553-.903-.171-.104-.553.903.171.104zm.549-.897a.452.452 0 01.149-.132l-.098-.174a.66.66 0 00-.214.19l.163.116zm.153-.134a.344.344 0 01.185-.055v-.2a.544.544 0 00-.291.085l.106.17zm.185-.055c.089 0 .194.037.32.128l.117-.162a.757.757 0 00-.437-.166v.2zm.322.13c.136.094.299.2.486.317l.106-.17c-.185-.116-.345-.22-.479-.312l-.113.164zm.486.317c.193.12.416.23.667.33l.074-.186a3.938 3.938 0 01-.635-.314l-.106.17zm.67.33c.265.1.579.147.937.147v-.2a2.51 2.51 0 01-.868-.134l-.069.188zm.937.147c.552 0 .993-.13 1.311-.402l-.13-.152c-.27.232-.659.354-1.181.354v.2zm1.312-.403c.321-.28.475-.676.475-1.174h-.2c0 .454-.139.79-.406 1.024l.131.15zm.475-1.174c0-.283-.072-.524-.225-.714l-.156.126c.118.146.181.34.181.588h.2zm-.224-.712a1.64 1.64 0 00-.558-.448l-.091.178c.208.106.371.238.491.392l.158-.122zm-.557-.447a3.89 3.89 0 00-.768-.302l-.055.192c.274.078.517.174.729.286l.094-.176zm-.768-.302a24.436 24.436 0 01-.851-.258l-.061.19c.29.094.576.18.857.26l.055-.192zm-.851-.258a7.26 7.26 0 01-.842-.332l-.085.182a7.4 7.4 0 00.866.34l.061-.19zm-.842-.332a2.67 2.67 0 01-.723-.492l-.138.144c.228.218.486.394.776.53l.085-.182zm-.723-.492c-.208-.2-.378-.45-.509-.752l-.183.08c.14.323.324.596.554.816l.138-.144zm-.508-.75c-.125-.302-.189-.678-.189-1.131h-.2c0 .47.067.874.204 1.207l.185-.076zm-.189-1.131c0-.355.07-.702.21-1.04l-.185-.076a2.89 2.89 0 00-.225 1.116h.2zm.209-1.039c.144-.337.351-.636.622-.898l-.139-.144c-.29.28-.512.601-.667.964l.184.078zm.622-.898c.269-.26.603-.47 1.003-.63l-.074-.186a3.23 3.23 0 00-1.068.672l.139.144zm1.003-.63c.397-.158.855-.238 1.377-.238v-.2c-.542 0-1.026.083-1.451.252l.074.186zm1.377-.238c.587 0 1.126.092 1.618.274l.069-.188a4.822 4.822 0 00-1.687-.286v.2zm1.618.274c.492.182.91.437 1.254.763l.137-.146a3.829 3.829 0 00-1.322-.805l-.069.188zm1.234.643l-.469.89.177.093.469-.89-.177-.093zM143.963 71v.1h.1V71h-.1zm-1.89 0h-.1v.1h.1V71zm0-10.122v-.1h-.1v.1h.1zm1.89 0h.1v-.1h-.1v.1zm0 10.022h-1.89v.2h1.89v-.2zm-1.79.1V60.878h-.2V71h.2zm-.1-10.022h1.89v-.2h-1.89v.2zm1.79-.1V71h.2V60.878h-.2zm9.695 8.568h.1v-.1h-.1v.1zm0 1.554v.1h.1V71h-.1zm-5.929 0h-.1v.1h.1V71zm0-10.122v-.1h-.1v.1h.1zm1.883 0h.1v-.1h-.1v.1zm0 8.568h-.1v.1h.1v-.1zm3.946 0V71h.2v-1.554h-.2zm.1 1.454h-5.929v.2h5.929v-.2zm-5.829.1V60.878h-.2V71h.2zm-.1-10.022h1.883v-.2h-1.883v.2zm1.783-.1v8.568h.2v-8.568h-.2zm.1 8.668h4.046v-.2h-4.046v.2zm14.26-8.668l.093.037.056-.137h-.149v.1zM159.684 71v.1h.068l.025-.063-.093-.037zm-1.701 0l-.092.037.025.063h.067V71zm-4.088-10.122v-.1h-.148l.056.137.092-.037zm1.911.119l-.061.08.061-.08zm.231.308l.094-.036-.001-.002-.093.038zm2.387 6.174l-.093.036.093-.036zm.224.665l-.096.028.001.002.095-.03zm.21.749l-.097.024.195-.003-.098-.021zm.182-.749l.097.026-.097-.026zm.217-.665l.093.037.001-.001-.094-.036zm2.373-6.174l.094.036.001-.003-.095-.033zm.217-.294l-.062-.078h-.001l.063.078zm1.833-.17l-4.088 10.122.185.074 4.088-10.122-.185-.074zM159.684 70.9h-1.701v.2h1.701v-.2zm-1.608.063l-4.088-10.122-.185.074 4.088 10.122.185-.074zm-4.181-9.985h1.512v-.2h-1.512v.2zm1.512 0c.147 0 .257.035.338.098l.123-.158a.736.736 0 00-.461-.14v.2zm.338.098a.63.63 0 01.2.267l.185-.076a.832.832 0 00-.262-.35l-.123.16zm.199.265l2.387 6.174.187-.072-2.387-6.174-.187.072zm2.387 6.175c.078.197.152.416.221.656l.193-.056a7.449 7.449 0 00-.228-.674l-.186.074zm.222.658c.074.236.144.484.208.743l.194-.048a12.931 12.931 0 00-.211-.755l-.191.06zm.403.74c.056-.26.116-.508.181-.743l-.193-.053c-.066.24-.127.491-.183.754l.195.042zm.181-.744c.065-.24.136-.458.213-.654l-.186-.074c-.08.205-.154.43-.22.676l.193.052zm.214-.655l2.373-6.174-.187-.072-2.373 6.174.187.072zm2.374-6.177c.03-.087.09-.17.186-.25l-.127-.154a.777.777 0 00-.248.338l.189.066zm.185-.249a.533.533 0 01.343-.111v-.2a.735.735 0 00-.468.155l.125.156zm.343-.111h1.519v-.2h-1.519v.2zm5.857 1.398v-.1h-.1v.1h.1zm0 2.807h-.1v.1h.1v-.1zm3.542 0h.1v-.1h-.1v.1zm0 1.449v.1h.1v-.1h-.1zm-3.542 0v-.1h-.1v.1h.1zm0 2.863h-.1v.1h.1v-.1zm4.494 0h.1v-.1h-.1v.1zm0 1.505v.1h.1V71h-.1zm-6.384 0h-.1v.1h.1V71zm0-10.122v-.1h-.1v.1h.1zm6.384 0h.1v-.1h-.1v.1zm0 1.498v.1h.1v-.1h-.1zm-4.594 0v2.807h.2v-2.807h-.2zm.1 2.907h3.542v-.2h-3.542v.2zm3.442-.1v1.449h.2v-1.449h-.2zm.1 1.349h-3.542v.2h3.542v-.2zm-3.642.1v2.863h.2v-2.863h-.2zm.1 2.963h4.494v-.2h-4.494v.2zm4.394-.1V71h.2v-1.505h-.2zm.1 1.405h-6.384v.2h6.384v-.2zm-6.284.1V60.878h-.2V71h.2zm-.1-10.022h6.384v-.2h-6.384v.2zm6.284-.1v1.498h.2v-1.498h-.2zm.1 1.398h-4.494v.2h4.494v-.2zm7.052 3.285l-.032-.095.032.095zm.651-.364l.067.074h.001l-.068-.074zm0-2.45l-.063.077.063-.077zm-2.751-.413v-.1h-.1v.1h.1zm0 3.36h-.1v.1h.1v-.1zm6.02 5.306v.1h.188l-.105-.156-.083.056zm-2.401-.378l.087-.05-.004-.005-.083.055zm-2.128-3.241l-.084.055.084-.055zm-.266-.259l-.048.088h.001l.047-.088zm-1.225-.077v-.1h-.1v.1h.1zm0 3.955v.1h.1V71h-.1zm-1.883 0h-.1v.1h.1V71zm0-10.122v-.1h-.1v.1h.1zm4.851.217l-.028.096h.001l.027-.096zm1.211.595l-.064.077h.001l.063-.077zm.7.924l-.092.038.092-.038zm.07 2.142l-.095-.032v.001l.095.031zm-.434.826l-.079-.061h-.001l.08.061zm-.7.651l-.056-.083.056.083zm-.945.441l-.029-.096-.221.067.2.116.05-.087zm.336.252l-.069.072.002.002.067-.074zm.28.336l-.084.054.001.002.083-.056zm-2.31-1.468c.363 0 .682-.045.956-.138l-.064-.19a2.785 2.785 0 01-.892.128v.2zm.956-.138c.276-.092.506-.22.686-.385l-.135-.148a1.676 1.676 0 01-.615.343l.064.19zm.687-.385c.183-.17.32-.368.41-.598l-.186-.072c-.079.2-.198.374-.36.522l.136.148zm.41-.598a2.02 2.02 0 00.133-.743h-.2c0 .246-.04.469-.119.67l.186.073zm.133-.743c0-.538-.18-.963-.548-1.26l-.126.155c.313.253.474.616.474 1.105h.2zm-.548-1.26c-.362-.297-.905-.436-1.61-.436v.2c.685 0 1.173.136 1.484.39l.126-.154zm-1.61-.436h-1.204v.2h1.204v-.2zm-1.304.1v3.36h.2v-3.36h-.2zm.1 3.46h1.176v-.2h-1.176v.2zm6.02 5.106h-1.701v.2h1.701v-.2zm-1.701 0c-.291 0-.489-.11-.613-.328l-.174.1c.165.287.434.428.787.428v-.2zm-.617-.333l-2.128-3.24-.167.109 2.128 3.24.167-.109zm-2.127-3.24a.839.839 0 00-.304-.294l-.093.178a.638.638 0 01.229.225l.168-.11zm-.302-.293c-.115-.063-.276-.089-.468-.089v.2c.181 0 .3.025.372.065l.096-.176zm-.468-.089h-.805v.2h.805v-.2zm-.905.1V71h.2v-3.955h-.2zm.1 3.855h-1.883v.2h1.883v-.2zm-1.783.1V60.878h-.2V71h.2zm-.1-10.022h3.087v-.2h-3.087v.2zm3.087 0c.679 0 1.257.072 1.736.213l.056-.192c-.502-.148-1.1-.221-1.792-.221v.2zm1.737.213c.485.137.875.33 1.174.576l.127-.154c-.325-.268-.742-.471-1.247-.614l-.054.192zm1.175.577c.305.246.528.541.671.884l.184-.076a2.428 2.428 0 00-.729-.964l-.126.156zm.671.885c.143.34.216.72.216 1.137h.2c0-.441-.077-.846-.232-1.215l-.184.078zm.216 1.137c0 .33-.05.642-.149.934l.19.064a3.1 3.1 0 00.159-.998h-.2zm-.149.935a2.604 2.604 0 01-.418.796l.158.122a2.77 2.77 0 00.45-.856l-.19-.062zm-.419.797a2.727 2.727 0 01-.676.628l.111.166c.289-.192.531-.417.725-.674l-.16-.12zm-.676.628c-.266.18-.572.323-.918.428l.058.192c.363-.11.687-.261.972-.454l-.112-.166zm-.939.61c.114.067.22.146.317.238l.138-.144a1.85 1.85 0 00-.355-.267l-.1.174zm.319.24c.095.087.183.192.263.316l.168-.108a1.765 1.765 0 00-.297-.356l-.134.148zm.264.318l2.534 3.738.166-.112-2.534-3.738-.166.112z" fill="#fff"/><rect x="1" y="1" width="202" height="82" rx="9" stroke="url(#paint2_radial_120_1253)" stroke-width="2"/><defs><radialGradient id="paint0_radial_120_1253" cx="0" cy="0" r="1" gradientUnits="userSpaceOnUse" gradientTransform="matrix(-108.1493 27.13714 -37.62503 -149.94656 122 52.09)"><stop stop-color="#FF4F4F"/><stop offset="1" stop-color="#FFAD62"/></radialGradient><radialGradient id="paint2_radial_120_1253" cx="0" cy="0" r="1" gradientUnits="userSpaceOnUse" gradientTransform="matrix(-221.50004 92.59189 -197.59228 -472.68393 213.5 -6.5)"><stop stop-color="#FF3939"/><stop offset="1" stop-color="#FF9D42"/></radialGradient><linearGradient id="paint1_linear_120_1253" x1="200.95" y1="58.5" x2="125.473" y2="83.391" gradientUnits="userSpaceOnUse"><stop offset=".23" stop-color="#8BA4BC"/><stop offset=".267" stop-color="#fff"/><stop offset=".277" stop-color="#D9E3ED"/><stop offset=".304" stop-color="#779BBF"/><stop offset=".359" stop-color="#fff"/><stop offset=".402" stop-color="#D9E3ED"/><stop offset=".433" stop-color="#779BBF"/><stop offset=".475" stop-color="#fff"/><stop offset=".532" stop-color="#779BBF"/><stop offset=".595" stop-color="#fff"/><stop offset=".644" stop-color="#779BBF"/><stop offset=".674" stop-color="#F2F5F9"/><stop offset=".725" stop-color="#fff"/><stop offset=".756" stop-color="#779BBF"/><stop offset=".801" stop-color="#fff"/><stop offset=".825" stop-color="#779BBF"/><stop offset=".853" stop-color="#BCCAD8"/></linearGradient></defs></svg>